<?xml version="1.0" encoding="UTF-8" standalone="no"?><!DOCTYPE svg PUBLIC "-//W3C//DTD SVG 1.1//EN" "http://www.w3.org/Graphics/SVG/1.1/DTD/svg11.dtd"><svg width="100%" height="100%" viewBox="0 0 512 512" version="1.1" xmlns="http://www.w3.org/2000/svg" xmlns:xlink="http://www.w3.org/1999/xlink" xml:space="preserve" xmlns:serif="http://www.serif.com/" style="fill-rule:evenodd;clip-rule:evenodd;stroke-linejoin:round;stroke-miterlimit:1.41421;"><path d="M422.4,256c0,91.518 -74.883,166.4 -166.4,166.4c-91.517,0 -166.4,-74.882 -166.4,-166.4c0,-91.518 74.882,-166.4 166.4,-166.4c15.6,0 31.2,2.082 45.764,6.24l32.236,-32.24c-23.918,-10.4 -49.918,-15.6 -78,-15.6c-114.4,0 -208,93.6 -208,208c0,114.4 93.6,208 208,208c114.4,0 208,-93.6 208,-208l-41.6,0Z" style="fill-rule:nonzero;"/><path d="M170.718,216.482l-29.118,29.118l93.6,93.6l208,-208l-29.118,-29.118l-178.882,177.836l-64.482,-63.436Z" style="fill:#008712;fill-rule:nonzero;"/></svg>